<svg width="24" height="24" viewBox="0 0 24 24" fill="#000" xmlns="http://www.w3.org/2000/svg">
<path d="M6.22468 4.81108C5.83416 4.42056 5.201 4.42056 4.81047 4.81108C4.41995 5.20161 4.41995 5.83477 4.81047 6.2253L10.5852 12L4.81053 17.7747C4.42001 18.1652 4.42001 18.7984 4.81053 19.1889C5.20106 19.5794 5.83422 19.5794 6.22474 19.1889L11.9994 13.4142L17.7741 19.1889C18.1646 19.5794 18.7978 19.5794 19.1883 19.1889C19.5788 18.7984 19.5788 18.1652 19.1883 17.7747L13.4136 12L19.1884 6.2253C19.5789 5.83477 19.5789 5.20161 19.1884 4.81108C18.7978 4.42056 18.1647 4.42056 17.7742 4.81108L11.9994 10.5858L6.22468 4.81108Z" fill="#000"/>
</svg>
