<svg width="24" height="24" viewBox="0 0 24 24" fill="#000" xmlns="http://www.w3.org/2000/svg">
<path fill-rule="evenodd" clip-rule="evenodd" d="M12.5111 6.36497L11.5243 5.41212C9.57422 3.52929 6.41258 3.52929 4.46253 5.41212C2.51249 7.29494 2.51249 10.3476 4.46253 12.2304L12.4872 19.9785L12.4889 19.9769L12.5128 20L20.5375 12.2519C22.4875 10.3691 22.4875 7.31645 20.5375 5.43363C18.5874 3.5508 15.4258 3.5508 13.4757 5.43363L12.5111 6.36497ZM12.4889 17.4975L16.9704 13.1705L18.2876 11.9423L18.2889 11.9436L19.2535 11.0122C20.4945 9.81408 20.4945 7.87148 19.2535 6.67332C18.0126 5.47516 16.0006 5.47516 14.7597 6.67332L12.5121 8.84341L12.5055 8.83706L12.5046 8.83801L10.2403 6.65181C8.99938 5.45365 6.98742 5.45365 5.74648 6.65181C4.50555 7.84997 4.50555 9.79257 5.74648 10.9907L8.052 13.2168L8.05364 13.2152L12.4889 17.4975Z" fill="#000"/>
</svg>
