<svg width="24" height="24" viewBox="0 0 24 24" fill="#000" xmlns="http://www.w3.org/2000/svg">
<path d="M11.5244 17.4452C11.2376 17.4451 10.951 17.4263 10.6666 17.389C9.17842 17.1946 7.80312 16.492 6.77349 15.4001C5.74385 14.3081 5.12316 12.894 5.01647 11.3969C4.90979 9.89992 5.32367 8.41202 6.18804 7.1851C7.05242 5.95819 8.3142 5.06764 9.75979 4.66421C9.87872 4.63098 10.003 4.62149 10.1256 4.63631C10.2482 4.65112 10.3667 4.68994 10.4743 4.75055C10.5819 4.81115 10.6765 4.89235 10.7527 4.98951C10.829 5.08668 10.8853 5.1979 10.9185 5.31683C10.9517 5.43577 10.9612 5.56009 10.9464 5.68269C10.9316 5.80529 10.8928 5.92376 10.8322 6.03136C10.7716 6.13896 10.6903 6.23357 10.5932 6.30978C10.496 6.386 10.3848 6.44232 10.2659 6.47555C9.31124 6.74217 8.46742 7.30818 7.85854 8.09026C7.24966 8.87234 6.90787 9.8292 6.88349 10.82C6.85911 11.8109 7.15342 12.7834 7.7231 13.5945C8.29278 14.4056 9.10776 15.0124 10.0481 15.3256C10.9885 15.6389 12.0045 15.642 12.9468 15.3346C13.8891 15.0272 14.7078 14.4255 15.2825 13.6179C15.8572 12.8104 16.1575 11.8397 16.1393 10.8487C16.1211 9.85776 15.7852 8.8988 15.1812 8.11296C15.106 8.01506 15.0507 7.90328 15.0187 7.78404C14.9866 7.66479 14.9784 7.54039 14.9944 7.41795C15.0104 7.29551 15.0504 7.17744 15.112 7.07045C15.1737 6.96346 15.2558 6.86965 15.3537 6.7944C15.4516 6.71915 15.5634 6.66391 15.6826 6.63185C15.8019 6.59979 15.9263 6.59155 16.0487 6.60757C16.1711 6.62358 16.2892 6.66355 16.3962 6.7252C16.5032 6.78685 16.597 6.86899 16.6722 6.9669C17.4121 7.9298 17.8679 9.0804 17.9882 10.2887C18.1085 11.4971 17.8885 12.715 17.3531 13.8048C16.8176 14.8947 15.9881 15.8131 14.9581 16.4564C13.9282 17.0996 12.7389 17.4419 11.5246 17.4448L11.5244 17.4452Z" fill="#000"/>
<path d="M8.32717 22.3437C8.18017 22.3436 8.03524 22.309 7.90399 22.2428C7.77275 22.1766 7.65885 22.0806 7.5714 21.9624C7.48394 21.8443 7.42538 21.7073 7.4004 21.5624C7.37542 21.4176 7.38474 21.2689 7.42757 21.1283L8.92569 16.2285C8.99858 15.99 9.16322 15.7902 9.3834 15.6731C9.60358 15.556 9.86127 15.5312 10.0998 15.604C10.3383 15.6769 10.538 15.8416 10.6551 16.0617C10.7722 16.2819 10.7971 16.5396 10.7242 16.7781L9.22615 21.6779C9.16728 21.8705 9.04818 22.0391 8.88636 22.1589C8.72454 22.2788 8.52854 22.3435 8.32717 22.3437Z" fill="#000"/>
<path d="M11.136 20.7574C11.0427 20.7573 10.9499 20.7432 10.8607 20.7156L6.6087 19.4157C6.37021 19.3427 6.17047 19.1781 6.0534 18.9579C5.93634 18.7377 5.91153 18.48 5.98446 18.2415C6.05739 18.003 6.22207 17.8033 6.44227 17.6862C6.66247 17.5691 6.92015 17.5444 7.15863 17.6173L11.4107 18.9172C11.6265 18.9828 11.8115 19.1238 11.932 19.3144C12.0525 19.505 12.1005 19.7326 12.0672 19.9556C12.0339 20.1787 11.9216 20.3823 11.7507 20.5294C11.5798 20.6766 11.3616 20.7574 11.1361 20.7571L11.136 20.7574Z" fill="#000"/>
<path d="M15.1604 2.9408C15.7669 3.13935 16.0976 3.79206 15.8991 4.39842C15.571 5.40068 13.1494 6.08172 13.1494 6.08172C13.1494 6.08172 11.5838 4.14844 11.9276 3.0982C12.1748 2.34325 12.7788 2.1611 13.3852 2.35962C13.7505 2.4792 14.0145 2.76396 14.1244 3.10359C14.4139 2.89473 14.7952 2.82125 15.1604 2.9408Z" fill="#000"/>
</svg>
