<svg width="24" height="24" viewBox="0 0 24 24" fill="#000" xmlns="http://www.w3.org/2000/svg">
<path d="M7.15347 17.4526C7.11278 17.4302 7.07309 17.4077 7.03291 17.3862C6.42148 17.0594 5.85031 16.6711 5.32988 16.206C4.60782 15.5608 4.01668 14.8103 3.59709 13.9225C3.33763 13.3736 3.15998 12.7986 3.06994 12.1948C3.01273 11.811 2.9873 11.4253 3.00614 11.0378C3.05116 10.1128 3.29185 9.24358 3.72136 8.42917C4.14961 7.61715 4.72022 6.92567 5.4031 6.32943C6.16284 5.66615 7.01419 5.16044 7.93852 4.78141C8.59703 4.51136 9.27596 4.31519 9.9736 4.18517C10.3238 4.11993 10.676 4.07141 11.0302 4.04017C11.5019 3.99849 11.9748 3.99081 12.4478 4.00991C14.0598 4.07496 15.5906 4.46245 17.0219 5.23736C17.801 5.65918 18.5069 6.18502 19.1245 6.83249C19.7192 7.45616 20.1983 8.16087 20.5322 8.96611C20.7416 9.47098 20.8812 9.9954 20.9511 10.5403C20.9995 10.9173 21.0123 11.2953 20.988 11.6733C20.9311 12.5614 20.6879 13.3955 20.275 14.1778C19.8918 14.9035 19.3936 15.5356 18.8014 16.091C18.0807 16.7672 17.2651 17.2931 16.374 17.6972C15.6247 18.0369 14.8459 18.2788 14.0399 18.4286C13.6445 18.5021 13.2473 18.5608 12.8458 18.5838C12.6119 18.5972 12.3779 18.6132 12.1438 18.6182C11.8509 18.6244 11.558 18.615 11.2661 18.5859C11.1662 18.5759 11.066 18.5681 10.9664 18.5561C10.8899 18.5469 10.8175 18.5582 10.7443 18.5815C9.62628 18.9383 8.50787 19.2939 7.38957 19.6498C7.05407 19.7566 6.71869 19.8637 6.38306 19.9701C6.3472 19.9814 6.31084 19.9941 6.27386 19.9984C6.11066 20.0176 5.99361 19.8624 6.0515 19.7039C6.06614 19.6639 6.08736 19.6264 6.10639 19.5881C6.43718 18.9218 6.76817 18.2556 7.09903 17.5893C7.11963 17.5477 7.14575 17.5083 7.15347 17.4526Z" stroke="#000" stroke-width="1.7"/>
</svg>
