<svg width="24" height="24" viewBox="0 0 24 24" fill="#000" xmlns="http://www.w3.org/2000/svg">
<g clip-path="url(#clip0_2532_10455)">
<path d="M19.03 20.11C18.82 16.12 15.53 13 11.54 13C7.55 13 4.26 16.12 4.05 20.11L4 21H19.07L19.03 20.11ZM5.86 19.3C6.41 16.66 8.75 14.7 11.54 14.7C14.33 14.7 16.66 16.66 17.22 19.3H5.86Z" fill="#000"/>
<path d="M11.5391 12C14.0191 12 16.0391 9.98 16.0391 7.5C16.0391 5.02 14.0191 3 11.5391 3C9.05906 3 7.03906 5.02 7.03906 7.5C7.03906 9.98 9.04906 12 11.5391 12ZM11.5391 4.7C13.0791 4.7 14.3391 5.96 14.3391 7.5C14.3391 9.04 13.0791 10.3 11.5391 10.3C9.99906 10.3 8.73906 9.04 8.73906 7.5C8.73906 5.96 9.98906 4.7 11.5391 4.7Z" fill="#000"/>
</g>
<defs>
<clipPath id="clip0_2532_10455">
<rect width="15.07" height="18" fill="#000" transform="translate(4 3)"/>
</clipPath>
</defs>
</svg>
