<svg width="24" height="24" viewBox="0 0 24 24" fill="#000" xmlns="http://www.w3.org/2000/svg">
<g clip-path="url(#clip0_1957_33)">
<path fill-rule="evenodd" clip-rule="evenodd" d="M6.84124 17.1588L8.27208 21L12 19.2956L15.7279 21L17.1588 17.1588L21 15.7279L19.2956 12L21 8.27208L17.1588 6.84124L15.7279 3L12 4.70441L8.27208 3L6.84124 6.84124L3 8.27208L4.70441 12L3 15.7279L6.84124 17.1588ZM14.7734 18.6956L12 17.4276L9.22661 18.6956L8.16213 15.8379L5.30443 14.7734L6.57243 12L5.30443 9.22665L8.16213 8.16217L9.22661 5.30448L12 6.57247L14.7734 5.30448L15.8379 8.16217L18.6956 9.22665L17.4276 12L18.6956 14.7734L15.8379 15.8379L14.7734 18.6956ZM12.0004 16.2472C9.65474 16.2472 7.7532 14.3457 7.7532 12C7.7532 9.65437 9.65474 7.75283 12.0004 7.75283C14.3461 7.75283 16.2476 9.65437 16.2476 12C16.2476 14.3457 14.3461 16.2472 12.0004 16.2472ZM14.5487 12C14.5487 13.4074 13.4078 14.5483 12.0004 14.5483C10.593 14.5483 9.45208 13.4074 9.45208 12C9.45208 10.5926 10.593 9.45167 12.0004 9.45167C13.4078 9.45167 14.5487 10.5926 14.5487 12Z" fill="#000"/>
</g>
<defs>
<clipPath id="clip0_1957_33">
<rect width="24" height="24" fill="#000"/>
</clipPath>
</defs>
</svg>
